<svg id="Capa_1" enable-background="new 0 0 512 512" height="512" viewBox="0 0 512 512" width="512" xmlns="http://www.w3.org/2000/svg"><g><g><path d="m461.879 243.752v23.922c0 16.601-13.458 30.059-30.059 30.059h-391.737c-16.601 0-30.059-13.458-30.059-30.059v-23.922z" fill="#ff9eb1"/><path d="m40.083 94.519h150.955 89.827 150.956c16.601 0 30.059 13.458 30.059 30.059v23.921h-451.856v-23.921c0-16.601 13.458-30.059 30.059-30.059z" fill="#fff"/><path d="m10.024 146.289h451.86v97.462h-451.86z" fill="#80b6ff" transform="matrix(-1 0 0 -1 471.908 390.039)"/><path d="m193.84 146.289h84.224v151.444h-84.224z" fill="#ff9eb1" transform="matrix(-1 0 0 -1 471.904 444.021)"/><g fill="#9ea6bf"><path d="m429.629 297.732c1.493 3.582 2.314 7.506 2.314 11.622 0 16.761-13.595 30.356-30.356 30.356s-30.356-13.595-30.356-30.356c0-4.116.821-8.04 2.314-11.622z"/><path d="m368.918 297.732c1.493 3.582 2.314 7.506 2.314 11.622 0 16.761-13.584 30.356-30.356 30.356-16.761 0-30.345-13.595-30.345-30.356 0-4.116.821-8.04 2.314-11.622z"/><path d="m159.059 297.732c1.493 3.582 2.314 7.506 2.314 11.622 0 16.761-13.584 30.356-30.345 30.356-16.772 0-30.356-13.595-30.356-30.356 0-4.116.821-8.04 2.314-11.622z"/><path d="m42.274 297.732h56.084c1.493 3.582 2.314 7.506 2.314 11.622 0 16.761-13.594 30.356-30.356 30.356s-30.356-13.595-30.356-30.356c.001-4.115.822-8.039 2.314-11.622z"/></g></g><g><circle cx="235.952" cy="93.871" r="10"/><path d="m.005 267.674c0 18.637 12.787 34.343 30.049 38.807-.067.953-.112 1.909-.112 2.873 0 22.263 18.113 40.376 40.375 40.376 12.091 0 22.95-5.35 30.356-13.798 7.406 8.448 18.264 13.798 30.355 13.798 22.257 0 40.365-18.113 40.365-40.376 0-.536-.018-1.069-.039-1.602h129.196c-.021.533-.039 1.066-.039 1.602 0 22.263 18.108 40.376 40.365 40.376 12.091 0 22.95-5.35 30.356-13.798 7.406 8.448 18.264 13.798 30.355 13.798 22.263 0 40.376-18.113 40.376-40.376 0-.964-.046-1.92-.113-2.873 14.438-3.734 25.735-15.337 29.048-29.938h21.063v6.012c0 5.533 4.486 10.02 10.02 10.02s10.02-4.486 10.02-10.02v-32.063c0-5.533-4.486-10.02-10.02-10.02s-10.02 4.486-10.02 10.02v6.012h-20.062v-131.927c0-22.099-17.979-40.078-40.078-40.078h-150.956c-5.533 0-10.02 4.486-10.02 10.02 0 5.533 4.486 10.02 10.02 10.02h150.956c11.05 0 20.039 8.989 20.039 20.039v13.904h-431.816v-13.904c0-11.05 8.989-20.039 20.039-20.039h150.955c5.533 0 10.02-4.486 10.02-10.02 0-5.533-4.486-10.02-10.02-10.02h-150.955c-22.099 0-40.078 17.979-40.078 40.078zm20.039-109.153h70.603v75.21h-70.603zm267.06 0h74.113v75.21h-74.113zm-20.039 129.192h-62.225v-129.192h62.225zm-82.265-53.982h-74.114v-75.21h74.114zm267.06-75.21v75.21h-70.604v-75.21zm-20.039 129.192h-144.717v-33.943h164.756v13.904c0 11.05-8.989 20.039-20.039 20.039zm-50.57 21.641c0-.538.036-1.071.078-1.602h40.517c.041.531.078 1.063.078 1.602 0 11.213-9.123 20.337-20.337 20.337-11.213 0-20.336-9.123-20.336-20.337zm-60.624-1.602h40.507c.041.531.078 1.063.078 1.602 0 11.213-9.123 20.337-20.337 20.337-11.207 0-20.326-9.123-20.326-20.337.001-.538.037-1.07.078-1.602zm-209.935 1.602c0-.538.036-1.071.078-1.602h40.506c.041.531.078 1.063.078 1.602 0 11.213-9.118 20.337-20.326 20.337-11.214 0-20.336-9.123-20.336-20.337zm-60.712 0c0-.538.036-1.071.078-1.602h40.517c.041.531.078 1.063.078 1.602 0 11.213-9.123 20.337-20.337 20.337s-20.336-9.123-20.336-20.337zm-29.936-41.68v-13.904h164.756v33.943h-144.717c-11.05 0-20.039-8.989-20.039-20.039z"/><path d="m10.02 392.102h10.52v-6.012c0-5.533 4.486-10.02 10.02-10.02s10.02 4.486 10.02 10.02v6.012h30.059v-6.012c0-5.533 4.486-10.02 10.02-10.02 5.533 0 10.02 4.486 10.02 10.02v6.012h30.059v-6.012c0-5.533 4.486-10.02 10.02-10.02 5.533 0 10.02 4.486 10.02 10.02v6.012h30.059v-6.012c0-5.533 4.486-10.02 10.02-10.02s10.02 4.486 10.02 10.02v6.012h30.059v-6.012c0-5.533 4.486-10.02 10.02-10.02 5.533 0 10.02 4.486 10.02 10.02v6.012h30.059v-6.012c0-5.533 4.486-10.02 10.02-10.02s10.02 4.486 10.02 10.02v6.012h30.059v-6.012c0-5.533 4.486-10.02 10.02-10.02 5.533 0 10.02 4.486 10.02 10.02v6.012h30.059v-6.012c0-5.533 4.486-10.02 10.02-10.02s10.02 4.486 10.02 10.02v6.012h30.059v-6.012c0-5.533 4.486-10.02 10.02-10.02s10.02 4.486 10.02 10.02v6.012h30.059v-6.012c0-5.533 4.486-10.02 10.02-10.02s10.02 4.486 10.02 10.02v6.012h10.521c5.533 0 10.02 4.486 10.02 10.02s-4.486 10.02-10.02 10.02h-10.532v5.969c0 5.533-4.486 10.02-10.02 10.02s-10.02-4.486-10.02-10.02v-5.969h-30.059v5.969c0 5.533-4.486 10.02-10.02 10.02s-10.02-4.486-10.02-10.02v-5.969h-30.059v5.969c0 5.533-4.486 10.02-10.02 10.02s-10.02-4.486-10.02-10.02v-5.969h-30.059v5.969c0 5.533-4.486 10.02-10.02 10.02-5.533 0-10.02-4.486-10.02-10.02v-5.969h-30.059v5.969c0 5.533-4.486 10.02-10.02 10.02s-10.02-4.486-10.02-10.02v-5.969h-30.059v5.969c0 5.533-4.486 10.02-10.02 10.02-5.533 0-10.02-4.486-10.02-10.02v-5.969h-30.059v5.969c0 5.533-4.486 10.02-10.02 10.02s-10.02-4.486-10.02-10.02v-5.969h-30.059v5.969c0 5.533-4.486 10.02-10.02 10.02-5.533 0-10.02-4.486-10.02-10.02v-5.969h-30.05v5.969c0 5.533-4.486 10.02-10.02 10.02-5.533 0-10.02-4.486-10.02-10.02v-5.969h-30.058v5.969c0 5.533-4.486 10.02-10.02 10.02s-10.02-4.486-10.02-10.02v-5.969h-10.519c-5.533 0-10.02-4.486-10.02-10.02s4.486-10.02 10.02-10.02z"/></g></g></svg>